<?xml version="1.0" standalone="no"?>
<!DOCTYPE svg PUBLIC "-//W3C//DTD SVG 20010904//EN"
 "http://www.w3.org/TR/2001/REC-SVG-20010904/DTD/svg10.dtd">
<svg version="1.0" xmlns="http://www.w3.org/2000/svg"
 width="1280.000000pt" height="640.000000pt" viewBox="0 0 1280.000000 640.000000"
 preserveAspectRatio="xMidYMid meet">
<metadata>
Created by potrace 1.15, written by Peter Selinger 2001-2017
</metadata>
<g transform="translate(0.000000,640.000000) scale(0.100000,-0.100000)"
fill="#000000" stroke="none">
<path d="M6667 6004 c-15 -8 -68 -24 -118 -34 -160 -34 -223 -84 -313 -246
-161 -291 -274 -367 -541 -366 -128 0 -255 20 -450 69 -303 77 -508 162 -774
320 -242 144 -339 180 -543 204 -124 14 -427 7 -638 -15 -80 -9 -235 -20 -345
-26 -715 -37 -1193 -142 -1607 -352 -166 -84 -188 -99 -169 -122 10 -12 32
-16 88 -16 51 0 73 -4 71 -11 -2 -7 -76 -40 -163 -74 -343 -133 -594 -251
-713 -335 -67 -47 -104 -91 -89 -106 3 -4 39 -8 80 -11 58 -3 77 0 87 12 10
11 16 13 26 4 10 -8 31 -8 81 0 108 19 110 20 143 47 34 29 36 29 42 -1 2 -16
-10 -27 -62 -52 -36 -18 -184 -90 -330 -161 -270 -132 -394 -208 -420 -257
-14 -25 -13 -28 9 -46 19 -16 40 -19 125 -19 156 0 268 25 505 114 183 69 193
55 26 -33 -412 -218 -613 -354 -603 -407 8 -44 148 -73 194 -40 10 8 23 11 29
6 44 -36 500 136 799 301 85 47 124 61 111 39 -4 -6 -95 -70 -203 -142 -376
-251 -491 -340 -513 -397 -24 -60 54 -99 163 -81 127 20 375 120 543 219 100
59 130 57 75 -5 -42 -48 -73 -118 -65 -145 8 -25 61 -49 107 -49 80 0 186 42
328 130 110 68 133 90 150 144 8 26 36 63 79 106 36 36 86 89 110 118 50 61
73 73 116 60 27 -9 53 -15 133 -33 21 -5 23 -9 17 -49 -6 -40 -5 -46 19 -61
19 -13 26 -26 26 -51 0 -29 5 -36 34 -48 19 -8 91 -17 166 -21 126 -7 132 -9
141 -31 4 -13 15 -24 23 -24 8 0 38 -11 68 -25 70 -33 114 -31 206 5 55 23 84
29 106 24 46 -10 152 -85 187 -133 44 -62 102 -85 208 -84 l83 0 32 -44 c27
-39 35 -44 59 -39 22 5 29 1 37 -18 7 -20 17 -24 67 -28 69 -7 125 -33 168
-78 44 -46 81 -63 126 -56 33 5 42 1 81 -30 58 -49 94 -63 183 -71 67 -5 83
-11 142 -49 65 -43 68 -44 152 -44 74 -1 92 -4 126 -25 35 -22 51 -25 138 -25
78 0 106 -4 137 -20 54 -28 115 -34 182 -21 51 11 59 10 98 -10 41 -22 47 -22
139 -11 116 15 181 2 272 -55 57 -35 59 -35 85 -18 15 10 35 14 49 11 15 -4
36 4 66 24 117 79 133 9 100 -440 -11 -157 -25 -366 -31 -465 -29 -503 -107
-1039 -235 -1625 -36 -168 -42 -228 -25 -261 14 -25 42 -24 65 1 10 11 26 20
35 20 24 0 50 32 50 63 0 18 20 48 65 98 48 54 68 86 80 125 8 29 40 89 69
132 30 43 71 112 91 152 44 88 194 247 219 233 8 -4 28 -27 45 -50 24 -33 38
-43 59 -43 63 0 110 -49 192 -200 28 -52 64 -109 80 -125 17 -17 39 -59 51
-95 27 -83 42 -99 70 -81 28 17 37 7 74 -84 63 -150 204 -233 213 -124 1 19
-29 225 -67 459 -220 1338 -317 2095 -287 2253 6 34 10 37 41 37 23 0 41 -8
55 -22 17 -18 23 -20 29 -9 6 9 15 11 27 6 28 -12 34 -10 156 56 l112 60 17
-22 c14 -19 23 -21 63 -17 26 3 55 12 64 21 15 13 19 13 31 0 13 -15 37 -14
104 3 21 5 36 1 59 -16 30 -22 31 -22 96 -5 37 9 85 25 106 36 38 20 41 20 77
4 45 -21 80 -16 159 21 30 14 73 25 95 26 49 0 123 22 189 55 45 23 55 24 145
18 l96 -7 55 38 c46 32 66 39 122 45 52 5 77 13 108 35 22 16 54 39 71 52 18
12 46 22 63 22 17 0 48 9 67 19 25 13 40 16 46 10 14 -14 79 19 113 56 22 23
30 26 70 20 77 -10 141 7 217 58 86 57 92 64 101 118 7 41 9 44 50 52 45 9 72
-2 72 -29 0 -17 16 -19 25 -3 9 13 48 4 125 -27 69 -28 128 -30 213 -8 69 18
112 38 143 66 21 18 23 18 83 2 52 -15 70 -16 129 -5 95 17 140 45 177 111 33
59 58 73 147 85 29 4 59 16 77 31 16 13 33 24 38 24 21 0 174 -169 233 -258
38 -56 79 -106 100 -119 33 -20 71 -47 140 -99 16 -12 78 -38 138 -58 125 -41
205 -47 253 -19 45 27 46 48 5 107 -35 50 -44 76 -29 76 4 0 66 -29 138 -64
316 -155 537 -220 639 -186 114 37 49 113 -275 321 -194 124 -273 186 -174
136 103 -51 386 -177 400 -177 9 0 15 10 15 25 0 33 16 32 32 -2 17 -36 47
-49 141 -62 153 -21 237 -10 245 33 10 49 -151 169 -472 353 -104 59 -182 109
-173 111 9 2 62 -17 119 -41 143 -62 215 -80 316 -75 69 2 86 6 98 22 21 30
18 43 -28 92 -52 56 -206 159 -435 289 -157 89 -211 129 -150 110 56 -17 117
-17 142 -1 39 25 31 54 -29 112 -108 104 -342 248 -588 359 -128 59 -163 79
-175 102 -65 126 -383 294 -725 383 -161 42 -466 96 -733 130 -126 16 -349 46
-495 66 -241 34 -286 38 -495 38 -211 1 -238 -1 -324 -23 -59 -15 -131 -44
-195 -77 -363 -192 -547 -274 -756 -337 -308 -93 -620 -121 -738 -65 -39 18
-47 29 -102 141 -42 84 -69 158 -89 237 -30 120 -29 143 8 155 17 5 18 10 10
35 -14 38 -54 80 -76 80 -10 -1 -30 -8 -46 -16z"/>
</g>
</svg>
