<?xml version="1.0" encoding="UTF-8" standalone="no"?>
<!-- Created with Inkscape (http://www.inkscape.org/) -->

<svg
   version="1.1"
   id="svg2"
   xml:space="preserve"
   width="413.33331"
   height="184"
   viewBox="0 0 413.33331 184"
   sodipodi:docname="83c2817d87549471fdf893560218bb5f.ai"
   xmlns:inkscape="http://www.inkscape.org/namespaces/inkscape"
   xmlns:sodipodi="http://sodipodi.sourceforge.net/DTD/sodipodi-0.dtd"
   xmlns="http://www.w3.org/2000/svg"
   xmlns:svg="http://www.w3.org/2000/svg"><defs
     id="defs6"><clipPath
       clipPathUnits="userSpaceOnUse"
       id="clipPath16"><path
         d="M 0,300 H 400 V 0 H 0 Z"
         id="path14" /></clipPath><clipPath
       clipPathUnits="userSpaceOnUse"
       id="clipPath56"><path
         d="M 0,300 H 400 V 0 H 0 Z"
         id="path54" /></clipPath><clipPath
       clipPathUnits="userSpaceOnUse"
       id="clipPath76"><path
         d="M 0,300 H 400 V 0 H 0 Z"
         id="path74" /></clipPath><clipPath
       clipPathUnits="userSpaceOnUse"
       id="clipPath104"><path
         d="M 0,300 H 400 V 0 H 0 Z"
         id="path102" /></clipPath><clipPath
       clipPathUnits="userSpaceOnUse"
       id="clipPath124"><path
         d="M 0,300 H 400 V 0 H 0 Z"
         id="path122" /></clipPath></defs><sodipodi:namedview
     id="namedview4"
     pagecolor="#ffffff"
     bordercolor="#666666"
     borderopacity="1.0"
     inkscape:pageshadow="2"
     inkscape:pageopacity="0.0"
     inkscape:pagecheckerboard="0" /><g
     id="g8"
     inkscape:groupmode="layer"
     inkscape:label="83c2817d87549471fdf893560218bb5f"
     transform="matrix(1.3333333,0,0,-1.3333333,-63.216665,292.95853)"><g
       id="g10"><g
         id="g12"
         clip-path="url(#clipPath16)"><g
           id="g18"
           transform="translate(113.4125,171.7189)"><path
             d="m 0,0 h -62 c -2.209,0 -4,1.791 -4,4 v 40 c 0,2.209 1.791,4 4,4 H 0 c 2.209,0 4,-1.791 4,-4 V 4 C 4,1.791 2.209,0 0,0"
             style="fill:#fcfcfc;fill-opacity:1;fill-rule:nonzero;stroke:none"
             id="path20" /></g><g
           id="g22"
           transform="translate(73.1406,187.3808)"><path
             d="M 0,0 2.835,16.634 H 7.369 L 4.532,0 Z"
             style="fill:#005098;fill-opacity:1;fill-rule:nonzero;stroke:none"
             id="path24" /></g><g
           id="g26"
           transform="translate(94.1166,203.6052)"><path
             d="m 0,0 c -0.898,0.337 -2.306,0.699 -4.064,0.699 -4.479,0 -7.635,-2.256 -7.662,-5.49 -0.025,-2.39 2.253,-3.723 3.973,-4.519 1.764,-0.815 2.358,-1.335 2.349,-2.063 -0.011,-1.115 -1.409,-1.625 -2.712,-1.625 -1.815,0 -2.779,0.252 -4.268,0.874 l -0.584,0.264 -0.637,-3.724 c 1.06,-0.464 3.018,-0.866 5.051,-0.887 4.766,0 7.86,2.23 7.895,5.683 0.017,1.892 -1.191,3.332 -3.807,4.519 -1.584,0.77 -2.555,1.283 -2.545,2.062 0,0.692 0.822,1.431 2.597,1.431 1.482,0.023 2.556,-0.3 3.393,-0.637 L -0.615,-3.605 0,0"
             style="fill:#005098;fill-opacity:1;fill-rule:nonzero;stroke:none"
             id="path28" /></g><g
           id="g30"
           transform="translate(100.1521,193.2775)"><path
             d="M 0,0 C 0.375,0.958 1.806,4.65 1.806,4.65 1.78,4.606 2.178,5.613 2.408,6.237 L 2.714,4.803 c 0,0 0.868,-3.97 1.05,-4.803 z M 5.591,10.721 H 2.087 c -1.085,0 -1.897,-0.296 -2.374,-1.379 L -7.02,-5.902 h 4.761 c 0,0 0.778,2.05 0.954,2.5 0.521,0 5.145,-0.007 5.807,-0.007 0.135,-0.583 0.551,-2.493 0.551,-2.493 H 9.26 L 5.591,10.721"
             style="fill:#005098;fill-opacity:1;fill-rule:nonzero;stroke:none"
             id="path32" /></g><g
           id="g34"
           transform="translate(69.338,204.0026)"><path
             d="m 0,0 -4.439,-11.343 -0.473,2.305 c -0.826,2.657 -3.401,5.536 -6.279,6.978 l 4.059,-14.547 4.797,0.005 L 4.803,0 H 0"
             style="fill:#005098;fill-opacity:1;fill-rule:nonzero;stroke:none"
             id="path36" /></g><g
           id="g38"
           transform="translate(60.7813,204.0129)"><path
             d="M 0,0 H -7.311 L -7.369,-0.346 C -1.681,-1.723 2.083,-5.05 3.645,-9.048 l -1.59,7.644 C 1.781,-0.351 0.985,-0.037 0,0"
             style="fill:#f6a500;fill-opacity:1;fill-rule:nonzero;stroke:none"
             id="path40" /></g><g
           id="g42"
           transform="translate(117.4125,209.7189)"><path
             d="m 0,0 h -70 v 6 c 0,2.209 1.791,4 4,4 h 62 c 2.209,0 4,-1.791 4,-4 z"
             style="fill:#0a5296;fill-opacity:1;fill-rule:nonzero;stroke:none"
             id="path44" /></g><g
           id="g46"
           transform="translate(47.4125,181.7189)"><path
             d="m 0,0 h 70 v -6 c 0,-2.209 -1.791,-4 -4,-4 H 4 c -2.209,0 -4,1.791 -4,4 z"
             style="fill:#f4a428;fill-opacity:1;fill-rule:nonzero;stroke:none"
             id="path48" /></g></g></g><g
       id="g50"><g
         id="g52"
         clip-path="url(#clipPath56)"><g
           id="g58"
           transform="translate(113.4125,81.7189)"><path
             d="m 0,0 h -62 c -2.209,0 -4,1.791 -4,4 v 40 c 0,2.209 1.791,4 4,4 H 0 c 2.209,0 4,-1.791 4,-4 V 4 C 4,1.791 2.209,0 0,0"
             style="fill:#f5f5f5;fill-opacity:1;fill-rule:nonzero;stroke:none"
             id="path60" /></g><g
           id="g62"
           transform="translate(87.1075,86.2189)"><path
             d="m 0,0 h -9.39 c -10.662,0 -19.305,8.643 -19.305,19.305 v 0.39 C -28.695,30.357 -20.052,39 -9.39,39 H 0 c 10.662,0 19.305,-8.643 19.305,-19.305 v -0.39 C 19.305,8.643 10.662,0 0,0"
             style="fill:#0a5296;fill-opacity:1;fill-rule:nonzero;stroke:none"
             id="path64" /></g><g
           id="g66"
           transform="translate(81,95.0222)"><path
             d="M 0,0 V 21.279 C 5,20.056 8.25,15.763 8.25,10.639 8.25,5.516 5,1.223 0,0 m -13.25,10.639 c 0,5.124 3.25,9.417 8.25,10.64 V 0 c -5,1.223 -8.25,5.516 -8.25,10.639 m 11.225,15.813 c -8.733,0 -15.813,-7.08 -15.813,-15.813 0,-8.733 7.08,-15.812 15.813,-15.812 8.733,0 15.812,7.079 15.812,15.812 0,8.733 -7.079,15.813 -15.812,15.813"
             style="fill:#ffffff;fill-opacity:1;fill-rule:nonzero;stroke:none"
             id="path68" /></g></g></g><g
       id="g70"><g
         id="g72"
         clip-path="url(#clipPath76)"><g
           id="g78"
           transform="translate(353.4125,171.7189)"><path
             d="m 0,0 h -62 c -2.209,0 -4,1.791 -4,4 v 40 c 0,2.209 1.791,4 4,4 H 0 c 2.209,0 4,-1.791 4,-4 V 4 C 4,1.791 2.209,0 0,0"
             style="fill:#e5e5e5;fill-opacity:1;fill-rule:nonzero;stroke:none"
             id="path80" /></g><g
           id="g82"
           transform="translate(341.4125,178.7189)"><path
             d="m 0,0 h -46.4 v 24 c 0,5.523 4.477,10 10,10 H 8 V 8 C 8,3.582 4.418,0 0,0"
             style="fill:#ffffff;fill-opacity:1;fill-rule:nonzero;stroke:none"
             id="path84" /></g><g
           id="g86"
           transform="translate(308.0125,181.7189)"><path
             d="m 0,0 h -9.6 v 22 c 0,3.314 3.886,6 7.2,6 H 4.8 V 6 C 4.8,2.686 3.314,0 0,0"
             style="fill:#0f6caf;fill-opacity:1;fill-rule:nonzero;stroke:none"
             id="path88" /></g><g
           id="g90"
           transform="translate(324.8125,181.7189)"><path
             d="m 0,0 h -9.6 v 22 c 0,3.314 3.886,6 7.2,6 H 4.8 V 6 C 4.8,2.686 3.314,0 0,0"
             style="fill:#de0a25;fill-opacity:1;fill-rule:nonzero;stroke:none"
             id="path92" /></g><g
           id="g94"
           transform="translate(341.6125,181.7189)"><path
             d="m 0,0 h -9.6 v 22 c 0,3.314 3.886,6 7.2,6 H 4.8 V 6 C 4.8,2.686 3.314,0 0,0"
             style="fill:#138e3b;fill-opacity:1;fill-rule:nonzero;stroke:none"
             id="path96" /></g></g></g><g
       id="g98"><g
         id="g100"
         clip-path="url(#clipPath104)"><g
           id="g106"
           transform="translate(233.4125,81.7189)"><path
             d="m 0,0 h -62 c -2.209,0 -4,1.791 -4,4 v 40 c 0,2.209 1.791,4 4,4 H 0 c 2.209,0 4,-1.791 4,-4 V 4 C 4,1.791 2.209,0 0,0"
             style="fill:#00adef;fill-opacity:1;fill-rule:nonzero;stroke:none"
             id="path108" /></g><g
           id="g110"
           transform="translate(181.8,105.0007)"><path
             d="M 0,0 H -1.847 L 0,4.309 V 4.173 L 1.847,0 Z M 15.733,-1.368 12.039,6.909 H 7.319 V -4.993 L 1.984,6.909 H 0 -2.052 L -7.388,-5.472 h 3.215 l 1.095,2.804 H 0 3.01 l 1.163,-2.804 h 6.156 v 9.234 l 4.036,-9.234 h 2.804 l 4.104,9.029 v -9.029 h 3.01 V 6.909 h -4.857 z"
             style="fill:#ffffff;fill-opacity:1;fill-rule:evenodd;stroke:none"
             id="path112" /></g><g
           id="g114"
           transform="translate(217.782,102.162)"><path
             d="m 0,0 h -6.909 v 2.463 h 6.704 V 4.788 H -6.909 V 7.046 H 0 L 3.42,3.762 Z M 7.251,3.762 9.44,6.088 12.631,9.713 H 8.824 L 5.404,5.951 1.984,9.713 H -9.987 V -2.531 H 1.642 l 3.625,4.036 3.557,-4.104 h 3.807 L 9.44,1.163 Z"
             style="fill:#ffffff;fill-opacity:1;fill-rule:nonzero;stroke:none"
             id="path116" /></g></g></g><g
       id="g118"><g
         id="g120"
         clip-path="url(#clipPath124)"><g
           id="g126"
           transform="translate(233.4125,171.7189)"><path
             d="m 0,0 h -62 c -2.209,0 -4,1.791 -4,4 v 40 c 0,2.209 1.791,4 4,4 H 0 c 2.209,0 4,-1.791 4,-4 V 4 C 4,1.791 2.209,0 0,0"
             style="fill:#192169;fill-opacity:1;fill-rule:nonzero;stroke:none"
             id="path128" /></g><g
           id="g130"
           transform="translate(202.4133,205.6189)"><path
             d="m 0,0 c -2.749,3.12 -6.765,5.1 -11.25,5.1 -8.283,0 -15,-6.715 -15,-15 0,-8.282 6.717,-15 15,-15 4.485,0 8.5,1.98 11.25,5.101 -2.328,2.643 -3.75,6.098 -3.75,9.899 0,3.801 1.422,7.257 3.75,9.9"
             style="fill:#ff0016;fill-opacity:1;fill-rule:nonzero;stroke:none"
             id="path132" /></g><g
           id="g134"
           transform="translate(202.4133,205.6189)"><path
             d="m 0,0 c -2.328,-2.643 -3.75,-6.1 -3.75,-9.9 0,-3.8 1.422,-7.256 3.75,-9.899 2.328,2.643 3.75,6.098 3.75,9.899 0,3.801 -1.422,7.257 -3.75,9.9"
             style="fill:#ff0016;fill-opacity:1;fill-rule:nonzero;stroke:none"
             id="path136" /></g><g
           id="g138"
           transform="translate(213.6633,210.7189)"><path
             d="m 0,0 c -4.485,0 -8.5,-1.98 -11.25,-5.1 -0.65,-0.738 -1.218,-1.545 -1.716,-2.4 h 3.432 c 0.546,-0.938 0.97,-1.949 1.306,-3 h -6.066 c -0.304,-0.965 -0.525,-1.963 -0.628,-3 h 7.318 c 0.051,-0.495 0.102,-0.99 0.102,-1.5 0,-0.507 -0.03,-1.006 -0.079,-1.5 h -7.343 c 0.104,-1.037 0.324,-2.035 0.629,-3 h 6.084 c -0.335,-1.056 -0.783,-2.058 -1.329,-3 h -3.428 c 0.497,-0.852 1.067,-1.66 1.716,-2.398 2.75,-3.122 6.765,-5.102 11.25,-5.102 8.283,0 15,6.719 15,15 C 15,-6.715 8.283,0 0,0"
             style="fill:#ffa916;fill-opacity:1;fill-rule:nonzero;stroke:none"
             id="path140" /></g></g></g></g></svg>
