<?xml version="1.0" standalone="no"?>
<!DOCTYPE svg PUBLIC "-//W3C//DTD SVG 20010904//EN"
 "http://www.w3.org/TR/2001/REC-SVG-20010904/DTD/svg10.dtd">
<svg version="1.0" xmlns="http://www.w3.org/2000/svg"
 width="800.000000pt" height="800.000000pt" viewBox="0 0 800.000000 800.000000"
 preserveAspectRatio="xMidYMid meet">

<g transform="translate(0.000000,800.000000) scale(0.100000,-0.100000)"
fill="#000000" stroke="none">
<path d="M4515 4905 c-33 -7 -76 -18 -95 -23 -19 -6 -57 -17 -85 -25 -68 -20
-226 -81 -305 -119 -177 -86 -363 -243 -422 -357 -40 -77 -55 -167 -39 -242
15 -73 82 -206 133 -264 85 -96 243 -190 413 -245 55 -18 109 -36 120 -41 11
-5 45 -13 75 -19 320 -64 569 -79 859 -52 74 6 136 10 138 9 2 -2 -16 -30 -38
-62 -37 -51 -42 -65 -46 -124 -5 -81 9 -109 35 -71 52 75 138 172 185 208 59
46 142 85 200 96 70 13 86 26 102 79 20 68 19 120 -2 139 -10 8 -54 22 -98 32
-130 27 -237 57 -355 97 -47 16 -97 29 -112 29 -27 0 -28 -2 -28 -54 l0 -55
106 -51 c74 -36 103 -55 96 -62 -35 -35 -760 -40 -972 -7 -116 18 -234 41
-260 49 -14 4 -50 16 -80 25 -30 9 -83 30 -118 46 -35 16 -65 29 -68 29 -16 0
-119 78 -153 116 -36 42 -41 52 -41 97 0 66 15 108 68 189 101 156 296 283
652 423 194 76 213 85 228 103 24 31 9 123 -21 121 -7 -1 -39 -7 -72 -14z"/>
</g>
</svg>
